<svg width="25" height="24" viewBox="0 0 25 24" fill="none" xmlns="http://www.w3.org/2000/svg">
<path d="M9.84302 10.9709C9.30102 10.9709 8.87402 11.4459 8.87402 12.0259C8.87402 12.6039 9.31102 13.0809 9.84302 13.0809C10.384 13.0809 10.811 12.6039 10.811 12.0259C10.822 11.4449 10.384 10.9709 9.84302 10.9709ZM13.311 10.9709C12.769 10.9709 12.342 11.4459 12.342 12.0259C12.342 12.6039 12.779 13.0809 13.311 13.0809C13.852 13.0809 14.279 12.6039 14.279 12.0259C14.278 11.4449 13.852 10.9709 13.311 10.9709Z" fill="url(#paint0_linear)"/>
<path d="M17.928 3H5.19701C4.94067 3.00066 4.68696 3.0518 4.45039 3.1505C4.21381 3.2492 3.99899 3.39354 3.8182 3.57526C3.6374 3.75699 3.49417 3.97254 3.39668 4.20962C3.29919 4.4467 3.24935 4.70066 3.25001 4.957V17.801C3.25001 18.884 4.12401 19.758 5.19701 19.758H15.97L15.465 17.999L16.682 19.13L17.831 20.194L19.875 22V4.957C19.8757 4.70066 19.8258 4.4467 19.7283 4.20962C19.6308 3.97254 19.4876 3.75699 19.3068 3.57526C19.126 3.39354 18.9112 3.2492 18.6746 3.1505C18.438 3.0518 18.1843 3.00066 17.928 3ZM14.26 15.407C14.26 15.407 13.918 14.999 13.634 14.636C14.878 14.284 15.353 13.506 15.353 13.506C14.963 13.762 14.593 13.944 14.26 14.068C13.0477 14.5754 11.7126 14.7138 10.422 14.466C9.94511 14.3723 9.47782 14.2351 9.02601 14.056C8.78772 13.9655 8.55614 13.8582 8.33301 13.735C8.30401 13.714 8.27601 13.706 8.24801 13.687C8.23303 13.6799 8.21973 13.6697 8.20901 13.657C8.03801 13.563 7.94301 13.497 7.94301 13.497C7.94301 13.497 8.39901 14.257 9.60601 14.618C9.32101 14.978 8.96901 15.407 8.96901 15.407C6.87001 15.34 6.07301 13.963 6.07301 13.963C6.07301 10.904 7.44101 8.425 7.44101 8.425C8.80901 7.398 10.11 7.427 10.11 7.427L10.205 7.541C8.49501 8.036 7.70601 8.786 7.70601 8.786C7.70601 8.786 7.91601 8.672 8.26701 8.511C9.28301 8.065 10.09 7.941 10.423 7.912C10.48 7.903 10.528 7.893 10.585 7.893C12.2322 7.67102 13.9072 7.98406 15.363 8.786C15.363 8.786 14.612 8.074 12.997 7.58L13.13 7.428C13.13 7.428 14.432 7.399 15.799 8.426C15.799 8.426 17.167 10.905 17.167 13.964C17.167 13.963 16.36 15.34 14.26 15.407Z" fill="url(#paint1_linear)"/>
<defs>
<linearGradient id="paint0_linear" x1="11.5765" y1="10.9709" x2="11.5765" y2="13.0809" gradientUnits="userSpaceOnUse">
<stop stop-color="#E93E3A"/>
<stop offset="0.213542" stop-color="#ED683C"/>
<stop offset="0.380208" stop-color="#F7941D"/>
<stop offset="0.53125" stop-color="#FAAA16"/>
<stop offset="0.776042" stop-color="#FDC70C"/>
<stop offset="1" stop-color="#FDC70C"/>
</linearGradient>
<linearGradient id="paint1_linear" x1="11.5625" y1="3" x2="11.5625" y2="22" gradientUnits="userSpaceOnUse">
<stop stop-color="#E93E3A"/>
<stop offset="0.213542" stop-color="#ED683C"/>
<stop offset="0.380208" stop-color="#F7941D"/>
<stop offset="0.53125" stop-color="#FAAA16"/>
<stop offset="0.776042" stop-color="#FDC70C"/>
<stop offset="1" stop-color="#FDC70C"/>
</linearGradient>
</defs>
</svg>
