<svg width="54" height="53" viewBox="0 0 54 53" fill="none" xmlns="http://www.w3.org/2000/svg">
<path d="M52.25 26.5C52.25 40.4452 40.9452 51.75 27 51.75C13.0548 51.75 1.75 40.4452 1.75 26.5C1.75 12.5548 13.0548 1.25 27 1.25C40.9452 1.25 52.25 12.5548 52.25 26.5Z" stroke="#F7941D" stroke-width="2.5" stroke-miterlimit="10"/>
<path d="M23.5263 9.03938C23.5263 9.03938 23.6809 4.42492 24.681 4.04002C25.6812 3.65511 28.218 3.42475 28.756 4.42492C29.294 5.42508 29.5011 4.97749 30.0682 5.96307C30.5056 6.72413 29.9224 6.96324 30.8366 9.03938C31.7507 11.1155 30.4604 13.1946 30.2986 14.0388C30.0624 15.243 28.7502 23.498 32.9856 25.4211C37.221 27.3442 38.8306 37.6491 33.2932 40.9557C28.2283 43.981 23.6123 40.6335 22.8629 40.0416C22.8314 40.0165 22.7939 39.9998 22.7541 39.9932C22.7143 39.9866 22.6735 39.9902 22.6355 40.0037C22.1144 40.1892 21.5504 40.2186 21.0128 40.0882C19.8464 39.7966 18.4555 38.5836 17.9904 34.6486C17.1754 27.7626 21.4225 24.0856 21.7388 23.8202C21.7519 23.8101 21.7637 23.7983 21.7738 23.7853C21.9838 23.5155 24.1678 20.6754 24.681 18.1138C25.1855 15.5871 25.2846 14.552 24.9726 13.1567C24.9652 13.1229 24.9506 13.091 24.9298 13.0634C24.909 13.0357 24.8825 13.0128 24.852 12.9964C24.8216 12.9799 24.7879 12.9702 24.7534 12.9679C24.7188 12.9656 24.6842 12.9708 24.6519 12.9832C23.9098 13.2748 21.7359 14.0183 20.6687 13.2981C20.639 13.2785 20.614 13.2525 20.5956 13.222C20.5771 13.1915 20.5657 13.1574 20.562 13.1219C20.5584 13.0865 20.5627 13.0507 20.5746 13.0171C20.5865 12.9835 20.6057 12.953 20.6308 12.9278C21.2883 12.279 23.4651 10.025 23.5263 9.03938Z" fill="url(#paint0_linear)"/>
<path d="M21.1318 40.2704C22.0342 44.3862 21.922 45.8719 21.7616 46.3939C21.7371 46.4739 21.6918 46.546 21.6303 46.6029C21.5688 46.6598 21.4934 46.6993 21.4117 46.7175C20.865 46.84 19.2903 47.2351 18.5832 47.8504C18.5074 47.9162 18.4544 48.0044 18.4319 48.1023C18.4095 48.2002 18.4187 48.3027 18.4583 48.395C18.4979 48.4873 18.5658 48.5647 18.6522 48.6159C18.7386 48.6671 18.839 48.6895 18.939 48.68C20.0091 48.5779 22.1465 48.4656 23.1962 49.0284C23.2566 49.0602 23.3231 49.0787 23.3913 49.0827C23.4594 49.0868 23.5276 49.0762 23.5914 49.0517C23.8523 48.9541 24.3203 48.4802 24.8656 48.645C27.4316 49.4366 25.5275 47.7702 25.0464 47.464C24.2197 46.9421 23.3362 46.2976 23.1423 45.8296C22.8303 45.0817 22.7705 41.4557 22.7603 40.1071C22.7597 40.0422 22.7458 39.9781 22.7193 39.9188C22.6929 39.8595 22.6546 39.8062 22.6068 39.7623C22.5589 39.7184 22.5026 39.6849 22.4412 39.6637C22.3798 39.6425 22.3148 39.6341 22.25 39.6391L21.5589 39.6916C21.4909 39.6968 21.4248 39.7166 21.365 39.7497C21.3053 39.7828 21.2534 39.8283 21.2129 39.8833C21.1724 39.9382 21.1442 40.0012 21.1301 40.068C21.1161 40.1348 21.1167 40.2038 21.1318 40.2704Z" fill="url(#paint1_linear)"/>
<path d="M31.4831 41.4236C31.455 41.4367 31.4329 41.4598 31.421 41.4885C31.4091 41.5171 31.4084 41.5491 31.4189 41.5782C31.6274 42.1424 32.4657 44.8178 30.2934 46.6038C28.5598 48.0282 27.6545 47.9364 27.2739 47.7614C27.1691 47.71 27.0499 47.6956 26.9359 47.7205C26.8218 47.7454 26.7195 47.8081 26.6455 47.8985C26.4545 48.1434 26.5289 48.4933 27.9869 48.7572C29.1853 48.973 28.2785 49.648 29.1299 49.527C29.1376 49.5284 29.1455 49.5284 29.1532 49.527C29.3486 49.46 32.0065 48.5546 34.5229 49.1465C34.5229 49.1465 35.6062 49.1669 34.7037 48.053C34.6818 48.0268 33.4353 47.8999 33.4003 47.8999C33.062 47.8999 32.2937 47.9262 32.3651 47.2599C32.3671 47.2382 32.3646 47.2164 32.3579 47.1957C32.2718 46.9814 31.8301 45.5264 33.2151 40.8696C33.2216 40.8472 33.2216 40.8234 33.2149 40.801C33.2083 40.7786 33.1955 40.7585 33.1778 40.7432C33.1602 40.7279 33.1386 40.7179 33.1155 40.7145C33.0924 40.711 33.0688 40.7143 33.0475 40.7238L31.4831 41.4236Z" fill="url(#paint2_linear)"/>
<defs>
<linearGradient id="paint0_linear" x1="27.3622" y1="42.2037" x2="27.3622" y2="2.67973" gradientUnits="userSpaceOnUse">
<stop offset="0.19" stop-color="#FDC70C"/>
<stop offset="0.89" stop-color="#ED683C"/>
<stop offset="1" stop-color="#E93E3A"/>
</linearGradient>
<linearGradient id="paint1_linear" x1="22.2981" y1="49.0882" x2="22.2981" y2="39.642" gradientUnits="userSpaceOnUse">
<stop stop-color="#E93E3A"/>
<stop offset="1" stop-color="#FDC70C"/>
</linearGradient>
<linearGradient id="paint2_linear" x1="1947.53" y1="3201.6" x2="1947.53" y2="2666.51" gradientUnits="userSpaceOnUse">
<stop offset="0.75" stop-color="#E93E3A"/>
<stop offset="0.838542" stop-color="#F48921"/>
<stop offset="0.9375" stop-color="#FDC70C"/>
</linearGradient>
</defs>
</svg>
