<svg width="25" height="24" viewBox="0 0 25 24" fill="none" xmlns="http://www.w3.org/2000/svg">
<path d="M20.5 3H4.5C4.23478 3 3.98043 3.10536 3.79289 3.29289C3.60536 3.48043 3.5 3.73478 3.5 4V20C3.5 20.2652 3.60536 20.5196 3.79289 20.7071C3.98043 20.8946 4.23478 21 4.5 21H20.5C20.7652 21 21.0196 20.8946 21.2071 20.7071C21.3946 20.5196 21.5 20.2652 21.5 20V4C21.5 3.73478 21.3946 3.48043 21.2071 3.29289C21.0196 3.10536 20.7652 3 20.5 3ZM18.454 7.265L17.488 8.19C17.4472 8.22112 17.4157 8.26286 17.397 8.31065C17.3783 8.35844 17.3731 8.41045 17.382 8.461V15.262C17.3731 15.3125 17.3783 15.3646 17.397 15.4124C17.4157 15.4601 17.4472 15.5019 17.488 15.533L18.43 16.459V16.663H13.689V16.459L14.666 15.511C14.763 15.415 14.763 15.386 14.763 15.24V9.742L12.047 16.638H11.679L8.518 9.742V14.364C8.50552 14.46 8.51486 14.5577 8.54533 14.6496C8.57581 14.7415 8.62662 14.8254 8.694 14.895L9.965 16.436V16.639H6.361V16.436L7.632 14.895C7.6989 14.8254 7.74858 14.7412 7.77706 14.649C7.80553 14.5568 7.81202 14.4592 7.796 14.364V9.02C7.80348 8.94685 7.79361 8.87296 7.7672 8.80434C7.74079 8.73571 7.69859 8.67427 7.644 8.625L6.514 7.265V7.062H10.02L12.73 13.005L15.112 7.062H18.455V7.265H18.454Z" fill="url(#paint0_linear)"/>
<defs>
<linearGradient id="paint0_linear" x1="12.5" y1="3" x2="12.5" y2="21" gradientUnits="userSpaceOnUse">
<stop stop-color="#E93E3A"/>
<stop offset="0.213542" stop-color="#ED683C"/>
<stop offset="0.380208" stop-color="#F7941D"/>
<stop offset="0.53125" stop-color="#FAAA16"/>
<stop offset="0.776042" stop-color="#FDC70C"/>
<stop offset="1" stop-color="#FDC70C"/>
</linearGradient>
</defs>
</svg>
