<svg width="25" height="24" viewBox="0 0 25 24" fill="none" xmlns="http://www.w3.org/2000/svg">
<path d="M20.383 7.99704C20.396 8.17204 20.396 8.34604 20.396 8.52004C20.396 13.845 16.343 19.981 8.936 19.981C6.654 19.981 4.534 19.32 2.75 18.172C3.074 18.209 3.386 18.222 3.723 18.222C5.53599 18.2264 7.29765 17.6202 8.724 16.501C7.88342 16.4858 7.06858 16.2085 6.39324 15.7078C5.7179 15.2071 5.21578 14.5079 4.957 13.708C5.206 13.745 5.456 13.77 5.718 13.77C6.079 13.77 6.442 13.72 6.779 13.633C5.86676 13.4489 5.04647 12.9544 4.45762 12.2337C3.86876 11.5131 3.54769 10.6107 3.549 9.68004V9.63004C4.086 9.92904 4.709 10.116 5.369 10.141C4.81609 9.77363 4.36272 9.27507 4.04934 8.68983C3.73596 8.1046 3.57231 7.4509 3.573 6.78704C3.573 6.03904 3.772 5.35304 4.121 4.75504C5.13314 6.00006 6.3955 7.0186 7.82634 7.7447C9.25717 8.4708 10.8246 8.88826 12.427 8.97004C12.365 8.67004 12.327 8.35904 12.327 8.04704C12.3267 7.518 12.4307 6.9941 12.6331 6.50528C12.8354 6.01647 13.1321 5.57232 13.5062 5.19823C13.8803 4.82414 14.3244 4.52745 14.8132 4.32512C15.3021 4.12279 15.826 4.01878 16.355 4.01904C17.515 4.01904 18.562 4.50504 19.298 5.29104C20.1998 5.11666 21.0645 4.78747 21.854 4.31804C21.5534 5.24886 20.9238 6.03815 20.083 6.53804C20.8828 6.44682 21.6644 6.2365 22.402 5.91404C21.8511 6.71714 21.1685 7.42139 20.383 7.99704Z" fill="url(#paint0_linear)"/>
<defs>
<linearGradient id="paint0_linear" x1="12.576" y1="4.01904" x2="12.576" y2="19.981" gradientUnits="userSpaceOnUse">
<stop stop-color="#E93E3A"/>
<stop offset="0.213542" stop-color="#ED683C"/>
<stop offset="0.380208" stop-color="#F7941D"/>
<stop offset="0.53125" stop-color="#FAAA16"/>
<stop offset="0.776042" stop-color="#FDC70C"/>
<stop offset="1" stop-color="#FDC70C"/>
</linearGradient>
</defs>
</svg>
